screens;
 
http://baypic.net/img-519fbc9ba4115.html 
 
http://baypic.net/img-519fbc9d8957a.html 
 
http://baypic.net/img-519fbc9f5e80e.html 

Format : MPEG-4
Format profile : Base Media / Version 2
Codec ID : mp42
File size : 428 MiB
Duration : 14mn 41s
Overall bit rate : 4 069 Kbps
Encoded date : UTC 2013-04-23 21:19:33
Tagged date : UTC 2013-04-23 21:50:11

Video
ID : 2
Format : AVC
Format/Info : Advanced Video Codec
Format profile : Main@L3.1
Format settings, CABAC : No
Format settings, ReFrames : 2 frames
Format settings, GOP : M=2, N=60
Codec ID : avc1
Codec ID/Info : Advanced Video Coding
Duration : 14mn 41s
Bit rate : 3 983 Kbps
Width : 1 280 pixels
Height : 720 pixels
Display aspect ratio : 16:9
Frame rate mode : Constant
Frame rate : 29.970 fps
Color space : YUV
Chroma subsampling : 4:2:0
Bit depth : 8 bits
Scan type : Progressive
Bits/(Pixel*Frame) : 0.144
Stream size : 419 MiB (98%)
Language : English
Encoded date : UTC 2013-04-23 21:19:36
Tagged date : UTC 2013-04-23 21:50:11
Color primaries : BT.709
Transfer characteristics : BT.709
Matrix coefficients : BT.709

Audio
ID : 1
Format : AAC
Format/Info : Advanced Audio Codec
Format profile : LC
Codec ID : 40
Duration : 14mn 41s
Bit rate mode : Constant
Bit rate : 81.0 Kbps
Nominal bit rate : 96.0 Kbps
Channel(s) : 2 channels
Channel positions : Front: L R
Sampling rate : 44.1 KHz
Compression mode : Lossy
Delay relative to video : 33ms
Stream size : 8.51 MiB (2%)
Language : English
